<svg width="380" height="160" viewBox="0 0 380 160" xmlns="http://www.w3.org/2000/svg">
  <title>Ordoviam — horizontal lockup (alternate)</title>
  <desc>Convergence mark left, ordoviam wordmark right. Wordmark outlined from Fraunces Display 400 (OFL).</desc>
  <g transform="translate(70,80) scale(0.62)" fill="#B48A3C">
    <path d="M-6 -60 L-56 60 L-16 60 Z"/>
    <path d="M6 -60 L56 60 L16 60 Z"/>
    <circle cx="0" cy="-14" r="6.5"/>
  </g>
  <g transform="translate(140,98)" fill="#B48A3C"><path d="M13.15-23.98Q16.55-23.98 19.20-22.41Q21.84-20.84 23.38-18.06Q24.92-15.28 24.92-11.64Q24.92-8.02 23.36-5.28Q21.79-2.54 19.09-1Q16.39 0.54 12.88 0.54Q9.48 0.54 6.84-1Q4.21-2.54 2.71-5.28Q1.22-8.02 1.22-11.64Q1.22-15.25 2.73-18.04Q4.24-20.82 6.93-22.40Q9.61-23.98 13.15-23.98M14.39 0.14Q16.39-0.03 17.75-1.53Q19.12-3.02 19.68-5.76Q20.25-8.51 19.84-12.37Q19.44-16.25 18.33-18.82Q17.23-21.38 15.55-22.57Q13.88-23.76 11.74-23.60Q9.64-23.41 8.28-21.87Q6.91-20.33 6.41-17.60Q5.91-14.88 6.29-11.07Q6.70-7.32 7.83-4.74Q8.96-2.16 10.65-0.93Q12.34 0.30 14.39 0.14M34.61-12.82L34.34-12.93Q34.34-16.58 35.36-19.04Q36.37-21.49 37.95-22.73Q39.53-23.98 41.20-23.98Q43.12-23.98 44.16-22.83Q45.20-21.68 45.20-19.68Q45.20-18.14 44.48-17.36Q43.77-16.58 42.69-16.58Q41.66-16.58 41.13-17.16Q40.61-17.74 40.55-18.93L40.55-19.68Q40.53-20.63 40.15-21.09Q39.77-21.55 38.88-21.55Q37.83-21.55 36.85-20.57Q35.88-19.60 35.25-17.66Q34.61-15.71 34.61-12.82M34.61-23.46L34.61-14.18L34.61-1.48Q34.61-1.19 34.79-0.99Q34.97-0.78 35.29-0.70L37.96-0.32Q38.10-0.30 38.15-0.27Q38.20-0.24 38.20-0.16Q38.20-0.08 38.15-0.04Q38.10 0 37.96 0L27.40 0Q27.30 0 27.23-0.05Q27.16-0.11 27.16-0.16Q27.16-0.24 27.24-0.30Q27.32-0.35 27.49-0.38L29.19-0.59Q29.54-0.68 29.69-0.85Q29.84-1.03 29.84-1.27L29.84-21.38Q29.84-21.52 29.77-21.61Q29.70-21.71 29.54-21.71L27.38-21.71Q27.30-21.71 27.24-21.76Q27.19-21.82 27.19-21.87Q27.19-21.95 27.24-22Q27.30-22.06 27.43-22.09L33.91-23.68Q34.10-23.73 34.20-23.75Q34.29-23.76 34.37-23.76Q34.51-23.76 34.56-23.67Q34.61-23.57 34.61-23.46M64.29-0.89L64.29-3.32L64.29-3.43L64.29-37.18Q64.29-37.31 64.22-37.40Q64.15-37.48 63.96-37.48L61.86-37.48Q61.78-37.48 61.72-37.53Q61.67-37.58 61.67-37.64Q61.67-37.72 61.72-37.76Q61.78-37.80 61.88-37.83L68.36-39.64Q68.58-39.72 68.66-39.73Q68.74-39.74 68.82-39.74Q68.96-39.74 69.01-39.65Q69.07-39.55 69.07-39.45L69.07-1.38Q69.07-1.05 69.23-0.86Q69.39-0.68 69.71-0.59L71.41-0.35Q71.58-0.32 71.63-0.28Q71.69-0.24 71.69-0.16Q71.69-0.08 71.63-0.04Q71.58 0 71.47 0L65.04 0Q64.66 0 64.48-0.22Q64.29-0.43 64.29-0.89M46.95-11.12Q46.95-15.12 48.46-18.01Q49.98-20.90 52.47-22.44Q54.97-23.98 57.97-23.98Q60.70-23.98 62.56-22.82Q64.42-21.65 65.58-19.71L65.15-19.52Q64.26-21.25 62.68-22.29Q61.10-23.33 58.94-23.33Q56.97-23.33 55.35-22.09Q53.73-20.84 52.77-18.25Q51.81-15.66 51.81-11.61Q51.81-7.96 52.65-5.52Q53.49-3.08 54.97-1.86Q56.46-0.65 58.40-0.65Q59.83-0.65 61.47-1.44Q63.10-2.24 64.61-4.10L64.85-3.83Q62.72-1.38 60.84-0.42Q58.97 0.54 56.75 0.54Q53.95 0.54 51.73-0.88Q49.52-2.29 48.24-4.93Q46.95-7.56 46.95-11.12M85.10-23.98Q88.51-23.98 91.15-22.41Q93.80-20.84 95.34-18.06Q96.88-15.28 96.88-11.64Q96.88-8.02 95.31-5.28Q93.74-2.54 91.04-1Q88.34 0.54 84.83 0.54Q81.43 0.54 78.80-1Q76.17-2.54 74.67-5.28Q73.17-8.02 73.17-11.64Q73.17-15.25 74.68-18.04Q76.19-20.82 78.88-22.40Q81.57-23.98 85.10-23.98M86.35 0.14Q88.34-0.03 89.71-1.53Q91.07-3.02 91.64-5.76Q92.20-8.51 91.80-12.37Q91.39-16.25 90.29-18.82Q89.18-21.38 87.51-22.57Q85.83-23.76 83.70-23.60Q81.59-23.41 80.23-21.87Q78.87-20.33 78.37-17.60Q77.87-14.88 78.25-11.07Q78.65-7.32 79.78-4.74Q80.92-2.16 82.61-0.93Q84.29 0.30 86.35 0.14M110.27 0.08L108.38 0.08Q108.22 0.08 108.08 0Q107.95-0.08 107.89-0.27L99.93-21.41Q99.71-21.95 99.43-22.36Q99.14-22.76 98.66-22.84L97.55-23.06Q97.36-23.11 97.27-23.17Q97.17-23.22 97.17-23.30Q97.17-23.38 97.24-23.41Q97.31-23.44 97.36-23.44L108.11-23.44Q108.30-23.44 108.30-23.30Q108.30-23.22 108.26-23.18Q108.22-23.14 108.05-23.11L106.73-22.84Q105.30-22.57 105.02-22.13Q104.73-21.68 105.06-20.84L111.48-3.35L110.62-1.73L117.40-20.33Q117.77-21.38 117.42-21.99Q117.07-22.60 115.72-22.84L114.24-23.11Q114.10-23.14 114.05-23.18Q113.99-23.22 113.99-23.30Q113.99-23.38 114.05-23.41Q114.10-23.44 114.18-23.44L121.26-23.44Q121.34-23.44 121.38-23.41Q121.42-23.38 121.42-23.30Q121.42-23.22 121.35-23.17Q121.28-23.11 121.07-23.06L120.10-22.87Q119.42-22.73 118.96-22.18Q118.50-21.63 118.15-20.60L110.70-0.24Q110.65-0.08 110.52 0Q110.40 0.08 110.27 0.08M129.28-23.60L129.28-1.38Q129.28-1.05 129.44-0.86Q129.60-0.68 129.92-0.59L131.62-0.35Q131.79-0.32 131.84-0.28Q131.89-0.24 131.89-0.16Q131.89-0.08 131.84-0.04Q131.79 0 131.68 0L121.99 0Q121.93 0 121.88-0.04Q121.82-0.08 121.82-0.16Q121.82-0.19 121.88-0.24Q121.93-0.30 122.04-0.32L123.85-0.59Q124.20-0.68 124.35-0.86Q124.50-1.05 124.50-1.35L124.50-21.30Q124.50-21.44 124.43-21.52Q124.36-21.60 124.17-21.60L122.07-21.60Q121.99-21.60 121.93-21.65Q121.88-21.71 121.88-21.76Q121.88-21.87 121.93-21.91Q121.99-21.95 122.09-21.98L128.57-23.79Q128.79-23.84 128.87-23.85Q128.95-23.87 129.03-23.87Q129.17-23.87 129.22-23.79Q129.28-23.71 129.28-23.60M126.74-28.21Q125.41-28.21 124.59-29.12Q123.77-30.02 123.77-31.35Q123.77-32.67 124.62-33.57Q125.47-34.48 126.74-34.48Q128.09-34.48 128.94-33.56Q129.79-32.64 129.79-31.35Q129.79-30.02 128.92-29.12Q128.06-28.21 126.74-28.21M147.88-2.48L147.88-2.67L147.66-2.48L147.66-18.74Q147.66-21.14 146.72-22.42Q145.77-23.71 143.88-23.71Q141.78-23.71 140.80-22.71Q139.83-21.71 139.83-20.63L139.83-18.77Q139.83-17.66 139.09-16.94Q138.35-16.23 137.24-16.23Q136.40-16.23 135.85-16.78Q135.30-17.33 135.30-18.41Q135.30-19.76 136.34-21.06Q137.38-22.36 139.41-23.19Q141.45-24.03 144.42-24.03Q148.50-24.03 150.48-22.23Q152.47-20.44 152.47-17.25L152.47-2.92Q152.47-1.81 152.83-1.34Q153.20-0.86 153.74-0.86Q154.22-0.86 154.62-1.16Q155.01-1.46 155.06-2.05Q155.09-2.16 155.13-2.19Q155.17-2.21 155.20-2.21Q155.28-2.21 155.29-2.19Q155.30-2.16 155.30-2.05Q155.30-1.62 154.93-1.03Q154.55-0.43 153.71 0.01Q152.87 0.46 151.50 0.46Q149.66 0.46 148.77-0.35Q147.88-1.16 147.88-2.48M134-5.18Q134-7.94 136.30-9.69Q138.59-11.45 143.29-11.45Q145.21-11.45 146.45-11.10Q147.69-10.75 148.74-10.23L148.58-10.04Q147.53-10.53 146.38-10.83Q145.23-11.12 143.83-11.12Q141.40-11.12 140.13-9.72Q138.86-8.32 138.86-5.91Q138.86-3.56 140.06-2.24Q141.26-0.92 143.23-0.92Q144.58-0.92 145.91-1.51Q147.23-2.11 148.12-3.24L148.36-3.08Q147.18-1.35 145.12-0.43Q143.07 0.49 140.70 0.49Q137.70 0.49 135.85-1.09Q134-2.67 134-5.18M164.38-23.57L164.38-1.35Q164.38-1.05 164.55-0.85Q164.73-0.65 165.05-0.59L166.75-0.32Q166.99-0.32 166.99-0.16Q166.99 0 166.78 0L157.11 0Q157.03 0 156.98-0.05Q156.92-0.11 156.92-0.16Q156.92-0.19 156.99-0.24Q157.06-0.30 157.17-0.32L158.95-0.59Q159.30-0.68 159.45-0.85Q159.60-1.03 159.60-1.27L159.60-21.28Q159.60-21.41 159.53-21.51Q159.46-21.60 159.30-21.60L157.14-21.60Q157.09-21.60 157.02-21.65Q156.95-21.71 156.95-21.76Q156.95-21.84 157.02-21.90Q157.09-21.95 157.19-21.98L163.70-23.79Q163.86-23.87 163.96-23.87Q164.05-23.87 164.13-23.87Q164.27-23.87 164.32-23.77Q164.38-23.68 164.38-23.57M164.83-19.44L163.94-18.63L163.73-18.82L164.62-19.66Q167.29-22.17 169.34-23.07Q171.40-23.98 173.26-23.98Q175.99-23.98 177.74-22.29Q179.50-20.60 179.50-17.04L179.50-1.46Q179.50-1.05 179.71-0.82Q179.93-0.59 180.33-0.51L181.63-0.32Q181.84-0.27 181.84-0.16Q181.84 0 181.57 0L172.23 0Q172.02 0 172.02-0.16Q172.02-0.32 172.29-0.32L173.93-0.57Q174.45-0.68 174.61-0.99Q174.77-1.30 174.77-1.67L174.77-16.55Q174.77-19.20 173.47-20.53Q172.18-21.87 170.13-21.87Q168.78-21.87 167.49-21.32Q166.21-20.76 164.83-19.44M179.66-19.52L178.85-18.63L178.63-18.82L179.44-19.74Q181.63-22.06 183.41-23.02Q185.19-23.98 187.11-23.98Q189.62-23.98 191.17-22.29Q192.73-20.60 193.21-17.01L195.32-1.48Q195.37-1.08 195.59-0.82Q195.80-0.57 196.21-0.49L197.48-0.30Q197.59-0.30 197.63-0.26Q197.67-0.22 197.67-0.16Q197.67-0.08 197.63-0.04Q197.59 0 197.48 0L187.87 0Q187.65 0 187.65-0.16Q187.65-0.27 187.92-0.32L189.57-0.57Q190.08-0.65 190.27-0.97Q190.46-1.30 190.40-1.73L188.49-16.55Q188.11-19.20 187.10-20.53Q186.08-21.87 184.22-21.87Q183.09-21.87 181.98-21.29Q180.87-20.71 179.66-19.52"/></g>
</svg>
